<?xml version="1.0" encoding="UTF-8" standalone="no"?>
<!-- Created with Inkscape (http://www.inkscape.org/) -->

<svg
   inkscape:export-ydpi="96"
   inkscape:export-xdpi="96"
   inkscape:export-filename="Template.png"
   width="192"
   height="152"
   id="svg11300"
   sodipodi:version="0.32"
   inkscape:version="1.2.2 (b0a8486541, 2022-12-01)"
   sodipodi:docname="de.schmidhuberj.tubefeeder.Source.svg"
   inkscape:output_extension="org.inkscape.output.svg.inkscape"
   version="1.0"
   style="display:inline;enable-background:new"
   viewBox="0 0 192 152"
   xmlns:inkscape="http://www.inkscape.org/namespaces/inkscape"
   xmlns:sodipodi="http://sodipodi.sourceforge.net/DTD/sodipodi-0.dtd"
   xmlns:xlink="http://www.w3.org/1999/xlink"
   xmlns="http://www.w3.org/2000/svg"
   xmlns:svg="http://www.w3.org/2000/svg"
   xmlns:rdf="http://www.w3.org/1999/02/22-rdf-syntax-ns#"
   xmlns:cc="http://creativecommons.org/ns#"
   xmlns:dc="http://purl.org/dc/elements/1.1/">
  <title
     id="title4162">Adwaita Icon Template</title>
  <defs
     id="defs3">
    <linearGradient
       inkscape:collect="always"
       id="linearGradient40739">
      <stop
         style="stop-color:#deddda;stop-opacity:1;"
         offset="0"
         id="stop40733" />
      <stop
         style="stop-color:#f6f5f4;stop-opacity:1;"
         offset="0.5"
         id="stop40735" />
      <stop
         style="stop-color:#9a9996;stop-opacity:1;"
         offset="1"
         id="stop40737" />
    </linearGradient>
    <linearGradient
       inkscape:collect="always"
       id="linearGradient40239">
      <stop
         style="stop-color:#deddda;stop-opacity:1;"
         offset="0"
         id="stop40233" />
      <stop
         style="stop-color:#f6f5f4;stop-opacity:1;"
         offset="0.5"
         id="stop40235" />
      <stop
         style="stop-color:#c0bfbc;stop-opacity:1;"
         offset="1"
         id="stop40237" />
    </linearGradient>
    <linearGradient
       inkscape:collect="always"
       id="linearGradient38747">
      <stop
         style="stop-color:#e01b24;stop-opacity:1;"
         offset="0"
         id="stop38741" />
      <stop
         style="stop-color:#f66151;stop-opacity:1;"
         offset="0.5"
         id="stop38743" />
      <stop
         style="stop-color:#c01c28;stop-opacity:1;"
         offset="1"
         id="stop38745" />
    </linearGradient>
    <linearGradient
       inkscape:collect="always"
       xlink:href="#linearGradient38747"
       id="linearGradient7589"
       x1="64"
       y1="200.00029"
       x2="64"
       y2="284"
       gradientUnits="userSpaceOnUse"
       gradientTransform="matrix(0.82142856,0,0,1.0476228,11.428571,-9.5248658)" />
    <linearGradient
       inkscape:collect="always"
       xlink:href="#linearGradient40739"
       id="linearGradient8563"
       gradientUnits="userSpaceOnUse"
       gradientTransform="matrix(0.375,0,0,1.04,75,-7.68)"
       x1="112"
       y1="192"
       x2="112"
       y2="292" />
    <linearGradient
       inkscape:collect="always"
       xlink:href="#linearGradient40739"
       id="linearGradient8571"
       gradientUnits="userSpaceOnUse"
       gradientTransform="matrix(0.375,0,0,1.04,-31,-7.68)"
       x1="112"
       y1="192"
       x2="112"
       y2="292" />
    <linearGradient
       inkscape:collect="always"
       xlink:href="#linearGradient40239"
       id="linearGradient9054"
       gradientUnits="userSpaceOnUse"
       gradientTransform="matrix(0.25,0,0,0.95999754,84.000001,11.68048)"
       x1="111.99999"
       y1="187.65216"
       x2="111.99999"
       y2="296.34808" />
    <linearGradient
       inkscape:collect="always"
       xlink:href="#linearGradient40239"
       id="linearGradient9064"
       gradientUnits="userSpaceOnUse"
       gradientTransform="matrix(0.25,0,0,0.95999754,-11.999999,11.68048)"
       x1="111.99999"
       y1="187.65216"
       x2="111.99999"
       y2="296.34808" />
  </defs>
  <sodipodi:namedview
     stroke="#ef2929"
     fill="#f57900"
     id="base"
     pagecolor="#ffffff"
     bordercolor="#666666"
     borderopacity="0.25490196"
     inkscape:pageopacity="0.0"
     inkscape:pageshadow="2"
     inkscape:zoom="3.1578947"
     inkscape:cx="95.95"
     inkscape:cy="76"
     inkscape:current-layer="layer9"
     showgrid="false"
     inkscape:grid-bbox="true"
     inkscape:document-units="px"
     inkscape:showpageshadow="false"
     inkscape:window-width="1280"
     inkscape:window-height="731"
     inkscape:window-x="0"
     inkscape:window-y="0"
     width="400px"
     height="300px"
     inkscape:snap-nodes="true"
     inkscape:snap-bbox="true"
     objecttolerance="7"
     gridtolerance="12"
     guidetolerance="13"
     inkscape:window-maximized="1"
     inkscape:pagecheckerboard="false"
     showguides="false"
     inkscape:guide-bbox="true"
     inkscape:locked="false"
     inkscape:measure-start="0,0"
     inkscape:measure-end="0,0"
     inkscape:object-nodes="true"
     inkscape:bbox-nodes="true"
     inkscape:snap-global="true"
     inkscape:object-paths="true"
     inkscape:snap-intersection-paths="true"
     inkscape:snap-bbox-edge-midpoints="true"
     inkscape:snap-bbox-midpoints="true"
     showborder="true"
     inkscape:snap-center="true"
     inkscape:snap-object-midpoints="true"
     inkscape:snap-midpoints="true"
     inkscape:snap-smooth-nodes="true"
     inkscape:snap-text-baseline="true"
     borderlayer="true"
     inkscape:deskcolor="#d1d1d1">
    <inkscape:grid
       type="xygrid"
       id="grid5883"
       spacingx="2"
       spacingy="2"
       enabled="true"
       visible="true"
       empspacing="4"
       originx="8"
       originy="8" />
    <sodipodi:guide
       position="72,16"
       orientation="0,1"
       id="guide1073"
       inkscape:locked="false"
       inkscape:label=""
       inkscape:color="rgb(0,0,255)" />
    <sodipodi:guide
       position="20,72"
       orientation="1,0"
       id="guide1075"
       inkscape:locked="false"
       inkscape:label=""
       inkscape:color="rgb(0,0,255)" />
    <sodipodi:guide
       position="72,112"
       orientation="0,1"
       id="guide1099"
       inkscape:locked="false"
       inkscape:label=""
       inkscape:color="rgb(0,0,255)" />
    <sodipodi:guide
       position="72,136"
       orientation="0,1"
       id="guide993"
       inkscape:locked="false"
       inkscape:label=""
       inkscape:color="rgb(0,0,255)" />
    <sodipodi:guide
       position="112,72"
       orientation="1,0"
       id="guide995"
       inkscape:locked="false"
       inkscape:label=""
       inkscape:color="rgb(0,0,255)" />
    <sodipodi:guide
       position="8.0000001,72"
       orientation="1,0"
       id="guide867"
       inkscape:locked="false"
       inkscape:label=""
       inkscape:color="rgb(0,0,255)" />
    <sodipodi:guide
       position="128,72"
       orientation="1,0"
       id="guide869"
       inkscape:locked="false"
       inkscape:label=""
       inkscape:color="rgb(0,0,255)" />
    <sodipodi:guide
       position="72,124"
       orientation="0,1"
       id="guide871"
       inkscape:locked="false"
       inkscape:label=""
       inkscape:color="rgb(0,0,255)" />
    <inkscape:grid
       type="xygrid"
       id="grid873"
       spacingx="1"
       spacingy="1"
       empspacing="8"
       color="#000000"
       opacity="0.49019608"
       empcolor="#000000"
       empopacity="0.08627451"
       dotted="true"
       originx="8"
       originy="8" />
    <sodipodi:guide
       position="32,72"
       orientation="1,0"
       id="guide877"
       inkscape:locked="false"
       inkscape:label=""
       inkscape:color="rgb(0,0,255)" />
    <sodipodi:guide
       position="124,72"
       orientation="1,0"
       id="guide879"
       inkscape:locked="false"
       inkscape:label=""
       inkscape:color="rgb(0,0,255)" />
    <sodipodi:guide
       position="72,128"
       orientation="0,1"
       id="guide881"
       inkscape:locked="false"
       inkscape:label=""
       inkscape:color="rgb(0,0,255)" />
    <sodipodi:guide
       position="72,20"
       orientation="0,1"
       id="guide883"
       inkscape:locked="false"
       inkscape:label=""
       inkscape:color="rgb(0,0,255)" />
    <sodipodi:guide
       position="16,72"
       orientation="1,0"
       id="guide885"
       inkscape:locked="false"
       inkscape:label=""
       inkscape:color="rgb(0,0,255)" />
    <sodipodi:guide
       position="136,72"
       orientation="1,0"
       id="guide887"
       inkscape:locked="false"
       inkscape:label=""
       inkscape:color="rgb(0,0,255)" />
    <sodipodi:guide
       position="72,8"
       orientation="0,1"
       id="guide897"
       inkscape:locked="false"
       inkscape:label=""
       inkscape:color="rgb(0,0,255)" />
    <sodipodi:guide
       position="72,32"
       orientation="0,1"
       id="guide899"
       inkscape:locked="false"
       inkscape:label=""
       inkscape:color="rgb(0,0,255)" />
    <sodipodi:guide
       position="264,264"
       orientation="-0.70710678,0.70710678"
       id="guide950"
       inkscape:locked="false"
       inkscape:label=""
       inkscape:color="rgb(0,0,255)" />
    <sodipodi:guide
       position="72,72"
       orientation="0.70710678,0.70710678"
       id="guide952"
       inkscape:locked="false"
       inkscape:label=""
       inkscape:color="rgb(0,0,255)" />
  </sodipodi:namedview>
  <metadata
     id="metadata4">
    <rdf:RDF>
      <cc:Work
         rdf:about="">
        <dc:format>image/svg+xml</dc:format>
        <dc:type
           rdf:resource="http://purl.org/dc/dcmitype/StillImage" />
        <dc:creator>
          <cc:Agent>
            <dc:title>GNOME Design Team</dc:title>
          </cc:Agent>
        </dc:creator>
        <dc:source />
        <cc:license
           rdf:resource="http://creativecommons.org/licenses/by-sa/4.0/" />
        <dc:title>Adwaita Icon Template</dc:title>
        <dc:subject>
          <rdf:Bag />
        </dc:subject>
        <dc:date />
        <dc:rights>
          <cc:Agent>
            <dc:title />
          </cc:Agent>
        </dc:rights>
        <dc:publisher>
          <cc:Agent>
            <dc:title />
          </cc:Agent>
        </dc:publisher>
        <dc:identifier />
        <dc:relation />
        <dc:language />
        <dc:coverage />
        <dc:description />
        <dc:contributor>
          <cc:Agent>
            <dc:title />
          </cc:Agent>
        </dc:contributor>
      </cc:Work>
      <cc:License
         rdf:about="http://creativecommons.org/licenses/by-sa/4.0/">
        <cc:permits
           rdf:resource="http://creativecommons.org/ns#Reproduction" />
        <cc:permits
           rdf:resource="http://creativecommons.org/ns#Distribution" />
        <cc:requires
           rdf:resource="http://creativecommons.org/ns#Notice" />
        <cc:requires
           rdf:resource="http://creativecommons.org/ns#Attribution" />
        <cc:permits
           rdf:resource="http://creativecommons.org/ns#DerivativeWorks" />
        <cc:requires
           rdf:resource="http://creativecommons.org/ns#ShareAlike" />
      </cc:License>
    </rdf:RDF>
  </metadata>
  <g
     id="layer1"
     inkscape:label="App Icon"
     inkscape:groupmode="layer"
     style="display:inline"
     transform="translate(8,-156)">
    <g
       inkscape:groupmode="layer"
       id="layer4"
       inkscape:label="template"
       style="display:inline"
       sodipodi:insensitive="true">
      <rect
         inkscape:label="0"
         y="172"
         x="9.2651362e-08"
         height="128"
         width="128"
         id="hicolor"
         style="display:inline;overflow:visible;visibility:visible;fill:#f0f0f0;fill-opacity:0;fill-rule:nonzero;stroke:none;stroke-width:0.5;marker:none;enable-background:accumulate" />
      <rect
         style="display:inline;overflow:visible;visibility:visible;fill:#f0f0f0;fill-opacity:0;fill-rule:nonzero;stroke:none;stroke-width:0.5;marker:none;enable-background:accumulate"
         id="symbolic"
         width="16"
         height="16"
         x="160"
         y="172"
         inkscape:label="0" />
    </g>
    <g
       inkscape:groupmode="layer"
       id="layer2"
       inkscape:label="baseplate"
       style="display:inline"
       sodipodi:insensitive="true">
      <g
         style="display:inline;fill:#000000;enable-background:new"
         transform="matrix(7.9911709,0,0,8.0036407,-167.7909,-4846.0776)"
         id="g12027"
         inkscape:export-xdpi="12"
         inkscape:export-ydpi="12" />
      <rect
         style="display:inline;overflow:visible;visibility:visible;fill:#f0f0f0;fill-opacity:1;fill-rule:nonzero;stroke:none;stroke-width:0.5;marker:none;enable-background:accumulate"
         id="128"
         width="128"
         height="128"
         x="9.2651362e-08"
         y="172"
         inkscape:label="0" />
      <g
         id="g883"
         style="fill:none;fill-opacity:0.25098;stroke:#a579b3;stroke-opacity:1"
         transform="translate(-24,24)" />
      <g
         id="g900"
         style="fill:none;fill-opacity:0.25098;stroke:#a579b3;stroke-opacity:1"
         transform="translate(-24,24)" />
      <rect
         inkscape:label=""
         y="172"
         x="160"
         height="16"
         width="16"
         id="16"
         style="display:inline;overflow:visible;visibility:visible;fill:#f0f0f0;fill-opacity:1;fill-rule:nonzero;stroke:none;stroke-width:0.5;marker:none;enable-background:accumulate" />
      <text
         xml:space="preserve"
         style="font-style:normal;font-variant:normal;font-weight:bold;font-stretch:normal;font-size:4px;line-height:125%;font-family:Cantarell;-inkscape-font-specification:'Cantarell, Bold';text-align:start;writing-mode:lr-tb;text-anchor:start;display:inline;fill:#000000;fill-opacity:1;stroke:none;stroke-width:0.332649;enable-background:new"
         x="0"
         y="167"
         id="text863"
         inkscape:label="icon-name"><tspan
           style="font-size:4px;stroke-width:0.332649"
           sodipodi:role="line"
           id="tspan861"
           x="0"
           y="167">Hicolor</tspan></text>
      <text
         inkscape:label="icon-name"
         id="text867"
         y="167"
         x="160"
         style="font-style:normal;font-variant:normal;font-weight:bold;font-stretch:normal;font-size:4px;line-height:125%;font-family:Cantarell;-inkscape-font-specification:'Cantarell, Bold';text-align:start;writing-mode:lr-tb;text-anchor:start;display:inline;fill:#000000;fill-opacity:1;stroke:none;stroke-width:0.332649;enable-background:new"
         xml:space="preserve"><tspan
           y="167"
           x="160"
           id="tspan865"
           sodipodi:role="line"
           style="font-size:4px;stroke-width:0.332649">Symbolic</tspan></text>
    </g>
    <g
       inkscape:groupmode="layer"
       id="layer9"
       inkscape:label="icons"
       style="display:inline">
      <rect
         style="display:inline;vector-effect:none;fill:url(#linearGradient7589);fill-opacity:1;stroke:none;stroke-width:0.231915;stroke-linecap:butt;stroke-linejoin:miter;stroke-miterlimit:4;stroke-dasharray:none;stroke-dashoffset:0;stroke-opacity:1;marker:none;marker-start:none;marker-mid:none;marker-end:none;paint-order:normal;enable-background:new"
         id="rect2249"
         width="92"
         height="88"
         x="18"
         y="200" />
      <rect
         style="fill:#000000;fill-opacity:0.2;stroke-width:1.29522;stroke-linecap:square;stroke-opacity:0.1"
         id="rect34292"
         width="92"
         height="2"
         x="18"
         y="286" />
      <rect
         style="fill:#ffffff;fill-opacity:0.2;stroke-width:1.29522;stroke-linecap:square;stroke-opacity:0.1"
         id="rect32818"
         width="92"
         height="2"
         x="18"
         y="200" />
      <g
         id="g48284">
        <path
           id="path23258"
           style="fill:#deddda;stroke-width:2;stroke-linecap:square;stroke-opacity:0.1"
           d="m 118,280 h 4 c 1.108,0 2,0.892 2,2 v 4 c 0,1.108 -0.892,2 -2,2 h -4 c -1.108,0 -2,-0.892 -2,-2 v -4 c 0,-1.108 0.892,-2 2,-2 z m 0,-20 h 4 c 1.108,0 2,0.892 2,2 v 4 c 0,1.108 -0.892,2 -2,2 h -4 c -1.108,0 -2,-0.892 -2,-2 v -4 c 0,-1.108 0.892,-2 2,-2 z m 0,-20 h 4 c 1.108,0 2,0.892 2,2 v 4 c 0,1.108 -0.892,2 -2,2 h -4 c -1.108,0 -2,-0.892 -2,-2 v -4 c 0,-1.108 0.892,-2 2,-2 z m 0,-20 h 4 c 1.108,0 2,0.892 2,2 v 4 c 0,1.108 -0.892,2 -2,2 h -4 c -1.108,0 -2,-0.892 -2,-2 v -4 c 0,-1.108 0.892,-2 2,-2 z m 0,-20 h 4 c 1.108,0 2,0.892 2,2 v 4 c 0,1.108 -0.892,2 -2,2 h -4 c -1.108,0 -2,-0.892 -2,-2 v -4 c 0,-1.108 0.892,-2 2,-2 z" />
        <path
           id="path407"
           style="fill:#c0bfbc;stroke-width:2;stroke-linecap:square;stroke-opacity:0.1"
           d="M 118 200 C 116.892 200 116 200.892 116 202 L 116 206 C 116 207.108 116.892 208 118 208 L 122 208 C 122.17383 208 122.33941 207.97099 122.5 207.92969 C 121.63701 207.70774 121 206.93416 121 206 L 121 202 C 121 201.06584 121.63701 200.29226 122.5 200.07031 C 122.33941 200.02901 122.17383 200 122 200 L 118 200 z M 118 220 C 116.892 220 116 220.892 116 222 L 116 226 C 116 227.108 116.892 228 118 228 L 122 228 C 122.17383 228 122.33941 227.97099 122.5 227.92969 C 121.63701 227.70774 121 226.93416 121 226 L 121 222 C 121 221.06584 121.63701 220.29226 122.5 220.07031 C 122.33941 220.02901 122.17383 220 122 220 L 118 220 z M 118 240 C 116.892 240 116 240.892 116 242 L 116 246 C 116 247.108 116.892 248 118 248 L 122 248 C 122.17383 248 122.33941 247.97099 122.5 247.92969 C 121.63701 247.70774 121 246.93416 121 246 L 121 242 C 121 241.06584 121.63701 240.29226 122.5 240.07031 C 122.33941 240.02901 122.17383 240 122 240 L 118 240 z M 118 260 C 116.892 260 116 260.892 116 262 L 116 266 C 116 267.108 116.892 268 118 268 L 122 268 C 122.17383 268 122.33941 267.97099 122.5 267.92969 C 121.63701 267.70774 121 266.93416 121 266 L 121 262 C 121 261.06584 121.63701 260.29226 122.5 260.07031 C 122.33941 260.02901 122.17383 260 122 260 L 118 260 z M 118 280 C 116.892 280 116 280.892 116 282 L 116 286 C 116 287.108 116.892 288 118 288 L 122 288 C 122.17383 288 122.33941 287.97099 122.5 287.92969 C 121.63701 287.70774 121 286.93416 121 286 L 121 282 C 121 281.06584 121.63701 280.29226 122.5 280.07031 C 122.33941 280.02901 122.17383 280 122 280 L 118 280 z " />
        <rect
           id="rect8561"
           width="6"
           height="104"
           x="114"
           y="192"
           style="fill:url(#linearGradient8563);fill-opacity:1.0;stroke-width:0.624499" />
        <rect
           id="rect9052"
           width="4"
           height="96"
           x="110"
           y="196"
           style="fill:url(#linearGradient9054);fill-opacity:1.0;stroke-width:0.489898" />
        <rect
           id="rect9056"
           width="4"
           height="96"
           x="110"
           y="196"
           style="fill:#77767b;fill-opacity:0.5;stroke-width:0.489898" />
        <rect
           id="rect35277"
           width="2"
           height="96"
           x="110"
           y="196"
           style="fill:#ffffff;fill-opacity:0.5;stroke-width:0.34641" />
      </g>
      <g
         id="g48292">
        <path
           id="rect16124"
           style="fill:#deddda;stroke-width:2;stroke-linecap:square;stroke-opacity:0.1"
           d="m 6,280 h 4 c 1.108,0 2,0.892 2,2 v 4 c 0,1.108 -0.892,2 -2,2 H 6 c -1.108,0 -2,-0.892 -2,-2 v -4 c 0,-1.108 0.892,-2 2,-2 z m 0,-20 h 4 c 1.108,0 2,0.892 2,2 v 4 c 0,1.108 -0.892,2 -2,2 H 6 c -1.108,0 -2,-0.892 -2,-2 v -4 c 0,-1.108 0.892,-2 2,-2 z m 0,-20 h 4 c 1.108,0 2,0.892 2,2 v 4 c 0,1.108 -0.892,2 -2,2 H 6 c -1.108,0 -2,-0.892 -2,-2 v -4 c 0,-1.108 0.892,-2 2,-2 z m 0,-20 h 4 c 1.108,0 2,0.892 2,2 v 4 c 0,1.108 -0.892,2 -2,2 H 6 c -1.108,0 -2,-0.892 -2,-2 v -4 c 0,-1.108 0.892,-2 2,-2 z m 0,-20 h 4 c 1.108,0 2,0.892 2,2 v 4 c 0,1.108 -0.892,2 -2,2 H 6 c -1.108,0 -2,-0.892 -2,-2 v -4 c 0,-1.108 0.892,-2 2,-2 z" />
        <path
           id="path401"
           style="fill:#c0bfbc;stroke-width:2;stroke-linecap:square;stroke-opacity:0.1"
           d="M 6 200 C 5.8261654 200 5.6605905 200.02901 5.5 200.07031 C 6.3629923 200.29226 7 201.06584 7 202 L 7 206 C 7 206.93416 6.3629923 207.70774 5.5 207.92969 C 5.6605905 207.97099 5.8261654 208 6 208 L 10 208 C 11.107999 208 12 207.108 12 206 L 12 202 C 12 200.892 11.107999 200 10 200 L 6 200 z M 6 220 C 5.8261654 220 5.6605905 220.02901 5.5 220.07031 C 6.3629923 220.29226 7 221.06584 7 222 L 7 226 C 7 226.93416 6.3629923 227.70774 5.5 227.92969 C 5.6605905 227.97099 5.8261654 228 6 228 L 10 228 C 11.107999 228 12 227.108 12 226 L 12 222 C 12 220.892 11.107999 220 10 220 L 6 220 z M 6 240 C 5.8261654 240 5.6605905 240.02901 5.5 240.07031 C 6.3629923 240.29226 7 241.06584 7 242 L 7 246 C 7 246.93416 6.3629923 247.70774 5.5 247.92969 C 5.6605905 247.97099 5.8261654 248 6 248 L 10 248 C 11.107999 248 12 247.108 12 246 L 12 242 C 12 240.892 11.107999 240 10 240 L 6 240 z M 6 260 C 5.8261654 260 5.6605905 260.02901 5.5 260.07031 C 6.3629923 260.29226 7 261.06584 7 262 L 7 266 C 7 266.93416 6.3629923 267.70774 5.5 267.92969 C 5.6605905 267.97099 5.8261654 268 6 268 L 10 268 C 11.107999 268 12 267.108 12 266 L 12 262 C 12 260.892 11.107999 260 10 260 L 6 260 z M 6 280 C 5.8261654 280 5.6605905 280.02901 5.5 280.07031 C 6.3629923 280.29226 7 281.06584 7 282 L 7 286 C 7 286.93416 6.3629923 287.70774 5.5 287.92969 C 5.6605905 287.97099 5.8261654 288 6 288 L 10 288 C 11.107999 288 12 287.108 12 286 L 12 282 C 12 280.892 11.107999 280 10 280 L 6 280 z " />
        <rect
           id="rect8565"
           width="6"
           height="104"
           x="8"
           y="192"
           style="fill:url(#linearGradient8571);fill-opacity:1.0;stroke-width:0.624499" />
        <rect
           id="rect9062"
           width="4"
           height="96"
           x="14"
           y="196"
           style="fill:url(#linearGradient9064);fill-opacity:1.0;stroke-width:0.489898" />
        <rect
           id="rect9060"
           width="4"
           height="96"
           x="14"
           y="196"
           style="fill:#77767b;fill-opacity:0.5;stroke-width:0.489898" />
        <rect
           id="rect35279"
           width="2"
           height="96"
           x="16"
           y="196"
           style="fill:#ffffff;fill-opacity:0.5;stroke-width:0.34641" />
      </g>
      <g
         id="g48276">
        <path
           style="fill:#c0bfbc;fill-opacity:1;stroke-width:2;stroke-linecap:square;stroke-opacity:0.1"
           d="m 52,234 v 24 a 2.3212901,2.3212901 0 0 0 3.472973,2.01544 l 21.054054,-12.03088 a 2.2857143,2.2857143 0 0 0 0,-3.96912 L 55.472973,231.98456 A 2.3212901,2.3212901 0 0 0 52,234 Z"
           id="path45746" />
        <path
           style="fill:#f6f5f4;fill-opacity:1;stroke-width:2;stroke-linecap:square;stroke-opacity:0.1"
           d="m 52,232 v 24 a 2.3212901,2.3212901 0 0 0 3.472973,2.01544 l 21.054054,-12.03088 a 2.2857143,2.2857143 0 0 0 0,-3.96912 L 55.472973,229.98456 A 2.3212901,2.3212901 0 0 0 52,232 Z"
           id="path17178" />
        <path
           id="path45748"
           style="fill:#000000;fill-opacity:0.1;stroke-width:2;stroke-linecap:square;stroke-opacity:0.1"
           d="M 54.716797,229.71289 A 2.3212901,2.3212901 0 0 0 52,232 v 2 a 2.3212901,2.3212901 0 0 1 3.472656,-2.01562 l 21.054688,12.03124 A 2.2857143,2.2857143 0 0 1 77.4375,245 2.2857143,2.2857143 0 0 0 76.527344,242.01562 L 55.472656,229.98438 a 2.3212901,2.3212901 0 0 0 -0.755859,-0.27149 z" />
      </g>
      <g
         id="g52216">
        <path
           id="rect42623"
           style="color:#000000;fill:#241f31;stroke-linecap:round;stroke-linejoin:round;-inkscape-stroke:none"
           d="M 161 173 L 161 175 L 160 175 L 160 177 L 161 177 L 161 179 L 160 179 L 160 181 L 161 181 L 161 183 L 160 183 L 160 185 L 161 185 L 161 187 L 163 187 L 163 186 L 173 186 L 173 187 L 175 187 L 175 185 L 176 185 L 176 183 L 175 183 L 175 181 L 176 181 L 176 179 L 175 179 L 175 177 L 176 177 L 176 175 L 175 175 L 175 173 L 173 173 L 173 174 L 163 174 L 163 173 L 161 173 z M 166.53125 177.43555 A 0.56619038 0.56619038 0 0 1 166.85742 177.51367 L 170.14258 179.48633 A 0.6 0.6 0 0 1 170.14258 180.51367 L 166.85742 182.48633 A 0.56619038 0.56619038 0 0 1 166 182 L 166 178 A 0.56619038 0.56619038 0 0 1 166.53125 177.43555 z " />
        <path
           style="fill:#241f31;fill-opacity:0.35;stroke:none;stroke-width:2;stroke-linecap:round;stroke-linejoin:round;stroke-opacity:1"
           d="m 166,178 v 4 a 0.56619038,0.56619038 0 0 0 0.85749,0.4855 l 3.28502,-1.971 a 0.6,0.6 0 0 0 0,-1.029 l -3.28502,-1.971 A 0.56619038,0.56619038 0 0 0 166,178 Z"
           id="path50921" />
      </g>
    </g>
    <g
       inkscape:groupmode="layer"
       id="layer3"
       inkscape:label="grid"
       style="display:none"
       sodipodi:insensitive="true">
      <circle
         cx="64.000031"
         cy="236"
         r="59.504131"
         id="circle2892"
         style="display:inline;opacity:0.1;vector-effect:none;fill:none;fill-opacity:1;stroke:#000000;stroke-width:0.99;stroke-linecap:butt;stroke-linejoin:miter;stroke-miterlimit:4;stroke-dasharray:0.99, 0.99;stroke-dashoffset:0;stroke-opacity:1;marker:none;marker-start:none;marker-mid:none;marker-end:none;paint-order:normal;enable-background:new" />
      <rect
         ry="7.9292889"
         rx="8.701004"
         y="180.49496"
         x="20.495007"
         height="111.01005"
         width="87.009987"
         id="rect2894"
         style="display:inline;opacity:0.1;vector-effect:none;fill:none;fill-opacity:1;stroke:#000000;stroke-width:0.99;stroke-linecap:butt;stroke-linejoin:miter;stroke-miterlimit:4;stroke-dasharray:0.99, 0.99;stroke-dashoffset:0;stroke-opacity:1;marker:none;marker-start:none;marker-mid:none;marker-end:none;paint-order:normal;enable-background:new" />
      <rect
         ry="7.9238095"
         rx="7.9238095"
         y="184.49524"
         x="12.495266"
         height="103.00952"
         width="103.00952"
         id="rect2896"
         style="display:inline;opacity:0.1;vector-effect:none;fill:none;fill-opacity:1;stroke:#000000;stroke-width:0.99;stroke-linecap:butt;stroke-linejoin:miter;stroke-miterlimit:4;stroke-dasharray:0.99, 0.99;stroke-dashoffset:0;stroke-opacity:1;marker:none;marker-start:none;marker-mid:none;marker-end:none;paint-order:normal;enable-background:new" />
      <rect
         ry="8.701005"
         rx="7.9292889"
         y="200.49496"
         x="8.4950066"
         height="87.010048"
         width="111.01004"
         id="rect2898"
         style="display:inline;opacity:0.1;vector-effect:none;fill:none;fill-opacity:1;stroke:#000000;stroke-width:0.99;stroke-linecap:butt;stroke-linejoin:miter;stroke-miterlimit:4;stroke-dasharray:0.99, 0.99;stroke-dashoffset:0;stroke-opacity:1;marker:none;marker-start:none;marker-mid:none;marker-end:none;paint-order:normal;enable-background:new" />
      <path
         inkscape:connector-curvature="0"
         id="path2900"
         d="M 2.6203015e-5,288.99999 H 128.00003"
         style="display:inline;fill:none;stroke:#62a0ea;stroke-width:2;stroke-linecap:butt;stroke-linejoin:miter;stroke-miterlimit:4;stroke-dasharray:none;stroke-opacity:1;enable-background:new" />
    </g>
  </g>
</svg>
