<?xml version="1.0" encoding="UTF-8"?>
<svg height="16px" viewBox="0 0 16 16" width="16px" xmlns="http://www.w3.org/2000/svg">
    <g fill="#241f31">
        <path d="m 1 1 v 2 h -1 v 2 h 1 v 2 h -1 v 2 h 1 v 2 h -1 v 2 h 1 v 2 h 2 v -1 h 10 v 1 h 2 v -2 h 1 v -2 h -1 v -2 h 1 v -2 h -1 v -2 h 1 v -2 h -1 v -2 h -2 v 1 h -10 v -1 z m 5.53125 4.4375 c 0.113281 -0.007812 0.226562 0.019531 0.324219 0.074219 l 3.289062 1.976562 c 0.179688 0.105469 0.289063 0.300781 0.289063 0.511719 s -0.109375 0.40625 -0.289063 0.511719 l -3.289062 1.976562 c -0.171875 0.101563 -0.390625 0.105469 -0.570313 0.003907 c -0.175781 -0.101563 -0.285156 -0.289063 -0.285156 -0.492188 v -4 c 0 -0.300781 0.234375 -0.546875 0.53125 -0.5625 z m 0 0"/>
        <path d="m 6 6 v 4 c 0 0.203125 0.109375 0.390625 0.289062 0.492188 c 0.175782 0.101562 0.394532 0.097656 0.570313 -0.007813 l 3.28125 -1.96875 c 0.183594 -0.109375 0.292969 -0.304687 0.292969 -0.515625 s -0.109375 -0.40625 -0.292969 -0.515625 l -3.28125 -1.96875 c -0.175781 -0.105469 -0.394531 -0.109375 -0.570313 -0.007813 c -0.179687 0.101563 -0.289062 0.289063 -0.289062 0.492188 z m 0 0" fill-opacity="0.34902"/>
    </g>
</svg>
