<?xml version="1.0" encoding="UTF-8"?>
<svg height="128px" viewBox="0 0 128 128" width="128px" xmlns="http://www.w3.org/2000/svg" xmlns:xlink="http://www.w3.org/1999/xlink">
    <linearGradient id="a" gradientTransform="matrix(1 0 0 1.047623 0 -181.524866)" gradientUnits="userSpaceOnUse" x1="64" x2="64" y1="200.00029" y2="284">
        <stop offset="0" stop-color="#e01b24"/>
        <stop offset="0.5" stop-color="#f66151"/>
        <stop offset="1" stop-color="#c01c28"/>
    </linearGradient>
    <linearGradient id="b" gradientUnits="userSpaceOnUse">
        <stop offset="0" stop-color="#deddda"/>
        <stop offset="0.5" stop-color="#f6f5f4"/>
        <stop offset="1" stop-color="#9a9996"/>
    </linearGradient>
    <linearGradient id="c" gradientTransform="matrix(0.375 0 0 1.04 75 -179.68)" x1="112" x2="112" xlink:href="#b" y1="192" y2="292"/>
    <linearGradient id="d" gradientUnits="userSpaceOnUse">
        <stop offset="0" stop-color="#deddda"/>
        <stop offset="0.5" stop-color="#f6f5f4"/>
        <stop offset="1" stop-color="#c0bfbc"/>
    </linearGradient>
    <linearGradient id="e" gradientTransform="matrix(0.25 0 0 0.959998 84 -160.31952)" x1="111.999992" x2="111.999992" xlink:href="#d" y1="187.652161" y2="296.348083"/>
    <linearGradient id="f" gradientTransform="matrix(0.375 0 0 1.04 -31 -179.68)" x1="112" x2="112" xlink:href="#b" y1="192" y2="292"/>
    <linearGradient id="g" gradientTransform="matrix(0.25 0 0 0.959998 -11.999999 -160.31952)" x1="111.999992" x2="111.999992" xlink:href="#d" y1="187.652161" y2="296.348083"/>
    <clipPath id="h">
        <rect height="128" width="128"/>
    </clipPath>
    <clipPath id="i">
        <rect height="128" width="128"/>
    </clipPath>
    <filter id="j" height="100%" width="100%" x="0%" y="0%">
        <feColorMatrix in="SourceGraphic" type="matrix" values="0 0 0 0 1 0 0 0 0 1 0 0 0 0 1 0 0 0 1 0"/>
    </filter>
    <mask id="k">
        <g clip-path="url(#i)" filter="url(#j)">
            <g clip-path="url(#h)">
                <path d="m 8 28 h 112 v 88 h -112 z m 0 0" fill="url(#a)"/>
                <path d="m 8 114 h 112 v 2 h -112 z m 0 0" fill-opacity="0.2"/>
                <path d="m 8 28 h 112 v 2 h -112 z m 0 0" fill="#ffffff" fill-opacity="0.2"/>
                <path d="m 118 108 h 4 c 1.109375 0 2 0.890625 2 2 v 4 c 0 1.109375 -0.890625 2 -2 2 h -4 c -1.109375 0 -2 -0.890625 -2 -2 v -4 c 0 -1.109375 0.890625 -2 2 -2 z m 0 -20 h 4 c 1.109375 0 2 0.890625 2 2 v 4 c 0 1.109375 -0.890625 2 -2 2 h -4 c -1.109375 0 -2 -0.890625 -2 -2 v -4 c 0 -1.109375 0.890625 -2 2 -2 z m 0 -20 h 4 c 1.109375 0 2 0.890625 2 2 v 4 c 0 1.109375 -0.890625 2 -2 2 h -4 c -1.109375 0 -2 -0.890625 -2 -2 v -4 c 0 -1.109375 0.890625 -2 2 -2 z m 0 -20 h 4 c 1.109375 0 2 0.890625 2 2 v 4 c 0 1.109375 -0.890625 2 -2 2 h -4 c -1.109375 0 -2 -0.890625 -2 -2 v -4 c 0 -1.109375 0.890625 -2 2 -2 z m 0 -20 h 4 c 1.109375 0 2 0.890625 2 2 v 4 c 0 1.109375 -0.890625 2 -2 2 h -4 c -1.109375 0 -2 -0.890625 -2 -2 v -4 c 0 -1.109375 0.890625 -2 2 -2 z m 0 0" fill="#deddda"/>
                <path d="m 114 20 h 6 v 104 h -6 z m 0 0" fill="url(#c)"/>
                <path d="m 110 24 h 4 v 96 h -4 z m 0 0" fill="url(#e)"/>
                <path d="m 110 24 h 4 v 96 h -4 z m 0 0" fill="#77767b" fill-opacity="0.501961"/>
                <path d="m 120 28 c 1.109375 0 2 0.890625 2 2 v 4 c 0 1.109375 -0.890625 2 -2 2 h 2 c 1.109375 0 2 -0.890625 2 -2 v -4 c 0 -1.109375 -0.890625 -2 -2 -2 z m 0 20 c 1.109375 0 2 0.890625 2 2 v 4 c 0 1.109375 -0.890625 2 -2 2 h 2 c 1.109375 0 2 -0.890625 2 -2 v -4 c 0 -1.109375 -0.890625 -2 -2 -2 z m 0 20 c 1.109375 0 2 0.890625 2 2 v 4 c 0 1.109375 -0.890625 2 -2 2 h 2 c 1.109375 0 2 -0.890625 2 -2 v -4 c 0 -1.109375 -0.890625 -2 -2 -2 z m 0 20 c 1.109375 0 2 0.890625 2 2 v 4 c 0 1.109375 -0.890625 2 -2 2 h 2 c 1.109375 0 2 -0.890625 2 -2 v -4 c 0 -1.109375 -0.890625 -2 -2 -2 z m 0 20 c 1.109375 0 2 0.890625 2 2 v 4 c 0 1.109375 -0.890625 2 -2 2 h 2 c 1.109375 0 2 -0.890625 2 -2 v -4 c 0 -1.109375 -0.890625 -2 -2 -2 z m 0 0" fill-opacity="0.101961"/>
                <path d="m 110 24 h 2 v 96 h -2 z m 0 0" fill="#ffffff" fill-opacity="0.501961"/>
                <path d="m 6 108 h 4 c 1.109375 0 2 0.890625 2 2 v 4 c 0 1.109375 -0.890625 2 -2 2 h -4 c -1.109375 0 -2 -0.890625 -2 -2 v -4 c 0 -1.109375 0.890625 -2 2 -2 z m 0 -20 h 4 c 1.109375 0 2 0.890625 2 2 v 4 c 0 1.109375 -0.890625 2 -2 2 h -4 c -1.109375 0 -2 -0.890625 -2 -2 v -4 c 0 -1.109375 0.890625 -2 2 -2 z m 0 -20 h 4 c 1.109375 0 2 0.890625 2 2 v 4 c 0 1.109375 -0.890625 2 -2 2 h -4 c -1.109375 0 -2 -0.890625 -2 -2 v -4 c 0 -1.109375 0.890625 -2 2 -2 z m 0 -20 h 4 c 1.109375 0 2 0.890625 2 2 v 4 c 0 1.109375 -0.890625 2 -2 2 h -4 c -1.109375 0 -2 -0.890625 -2 -2 v -4 c 0 -1.109375 0.890625 -2 2 -2 z m 0 -20 h 4 c 1.109375 0 2 0.890625 2 2 v 4 c 0 1.109375 -0.890625 2 -2 2 h -4 c -1.109375 0 -2 -0.890625 -2 -2 v -4 c 0 -1.109375 0.890625 -2 2 -2 z m 0 0" fill="#deddda"/>
                <path d="m 8 20 h 6 v 104 h -6 z m 0 0" fill="url(#f)"/>
                <path d="m 14 24 h 4 v 96 h -4 z m 0 0" fill="url(#g)"/>
                <path d="m 14 24 h 4 v 96 h -4 z m 0 0" fill="#77767b" fill-opacity="0.501961"/>
                <path d="m 6 28 c -1.109375 0 -2 0.890625 -2 2 v 4 c 0 1.109375 0.890625 2 2 2 h 2 c -1.109375 0 -2 -0.890625 -2 -2 v -4 c 0 -1.109375 0.890625 -2 2 -2 z m 0 20 c -1.109375 0 -2 0.890625 -2 2 v 4 c 0 1.109375 0.890625 2 2 2 h 2 c -1.109375 0 -2 -0.890625 -2 -2 v -4 c 0 -1.109375 0.890625 -2 2 -2 z m 0 20 c -1.109375 0 -2 0.890625 -2 2 v 4 c 0 1.109375 0.890625 2 2 2 h 2 c -1.109375 0 -2 -0.890625 -2 -2 v -4 c 0 -1.109375 0.890625 -2 2 -2 z m 0 20 c -1.109375 0 -2 0.890625 -2 2 v 4 c 0 1.109375 0.890625 2 2 2 h 2 c -1.109375 0 -2 -0.890625 -2 -2 v -4 c 0 -1.109375 0.890625 -2 2 -2 z m 0 20 c -1.109375 0 -2 0.890625 -2 2 v 4 c 0 1.109375 0.890625 2 2 2 h 2 c -1.109375 0 -2 -0.890625 -2 -2 v -4 c 0 -1.109375 0.890625 -2 2 -2 z m 0 0" fill-opacity="0.101961"/>
                <path d="m 16 24 h 2 v 96 h -2 z m 0 0" fill="#ffffff" fill-opacity="0.501961"/>
                <path d="m 52 62 v 24 c 0 0.828125 0.441406 1.59375 1.15625 2.007812 c 0.714844 0.414063 1.597656 0.417969 2.316406 0.007813 l 21.054688 -12.03125 c 0.710937 -0.40625 1.152344 -1.164063 1.152344 -1.984375 s -0.441407 -1.578125 -1.152344 -1.984375 l -21.054688 -12.03125 c -0.71875 -0.410156 -1.601562 -0.40625 -2.316406 0.007813 c -0.714844 0.414062 -1.15625 1.179687 -1.15625 2.007812 z m 0 0" fill="#c0bfbc"/>
                <path d="m 52 60 v 24 c 0 0.828125 0.441406 1.59375 1.15625 2.007812 c 0.714844 0.414063 1.597656 0.417969 2.316406 0.007813 l 21.054688 -12.03125 c 0.710937 -0.40625 1.152344 -1.164063 1.152344 -1.984375 s -0.441407 -1.578125 -1.152344 -1.984375 l -21.054688 -12.03125 c -0.71875 -0.410156 -1.601562 -0.40625 -2.316406 0.007813 c -0.714844 0.414062 -1.15625 1.179687 -1.15625 2.007812 z m 0 0" fill="#f6f5f4"/>
                <path d="m 54.71875 57.710938 c -0.675781 -0.113282 -1.367188 0.074218 -1.890625 0.511718 c -0.527344 0.441406 -0.828125 1.09375 -0.828125 1.777344 v 2 c 0 -0.828125 0.441406 -1.59375 1.15625 -2.007812 c 0.714844 -0.414063 1.597656 -0.417969 2.316406 -0.007813 l 21.054688 12.03125 c 0.394531 0.230469 0.710937 0.574219 0.910156 0.984375 c 0.527344 -1.078125 0.128906 -2.382812 -0.910156 -2.984375 l -21.054688 -12.03125 c -0.234375 -0.132813 -0.488281 -0.226563 -0.753906 -0.273437 z m 0 0" fill-opacity="0.101961"/>
            </g>
        </g>
    </mask>
    <mask id="l">
        <g filter="url(#j)">
            <rect fill-opacity="0.8" height="128" width="128"/>
        </g>
    </mask>
    <linearGradient id="m" gradientTransform="matrix(0 0.37 -0.98462 0 295.38501 -30.360001)" gradientUnits="userSpaceOnUse" x1="300" x2="428" y1="235" y2="235">
        <stop offset="0" stop-color="#f9f06b"/>
        <stop offset="1" stop-color="#f5c211"/>
    </linearGradient>
    <clipPath id="n">
        <rect height="128" width="128"/>
    </clipPath>
    <clipPath id="o">
        <rect height="128" width="128"/>
    </clipPath>
    <path d="m 8 28 h 112 v 88 h -112 z m 0 0" fill="url(#a)"/>
    <path d="m 8 114 h 112 v 2 h -112 z m 0 0" fill-opacity="0.2"/>
    <path d="m 8 28 h 112 v 2 h -112 z m 0 0" fill="#ffffff" fill-opacity="0.2"/>
    <path d="m 118 108 h 4 c 1.109375 0 2 0.890625 2 2 v 4 c 0 1.109375 -0.890625 2 -2 2 h -4 c -1.109375 0 -2 -0.890625 -2 -2 v -4 c 0 -1.109375 0.890625 -2 2 -2 z m 0 -20 h 4 c 1.109375 0 2 0.890625 2 2 v 4 c 0 1.109375 -0.890625 2 -2 2 h -4 c -1.109375 0 -2 -0.890625 -2 -2 v -4 c 0 -1.109375 0.890625 -2 2 -2 z m 0 -20 h 4 c 1.109375 0 2 0.890625 2 2 v 4 c 0 1.109375 -0.890625 2 -2 2 h -4 c -1.109375 0 -2 -0.890625 -2 -2 v -4 c 0 -1.109375 0.890625 -2 2 -2 z m 0 -20 h 4 c 1.109375 0 2 0.890625 2 2 v 4 c 0 1.109375 -0.890625 2 -2 2 h -4 c -1.109375 0 -2 -0.890625 -2 -2 v -4 c 0 -1.109375 0.890625 -2 2 -2 z m 0 -20 h 4 c 1.109375 0 2 0.890625 2 2 v 4 c 0 1.109375 -0.890625 2 -2 2 h -4 c -1.109375 0 -2 -0.890625 -2 -2 v -4 c 0 -1.109375 0.890625 -2 2 -2 z m 0 0" fill="#deddda"/>
    <path d="m 114 20 h 6 v 104 h -6 z m 0 0" fill="url(#c)"/>
    <path d="m 110 24 h 4 v 96 h -4 z m 0 0" fill="url(#e)"/>
    <path d="m 110 24 h 4 v 96 h -4 z m 0 0" fill="#77767b" fill-opacity="0.501961"/>
    <path d="m 120 28 c 1.109375 0 2 0.890625 2 2 v 4 c 0 1.109375 -0.890625 2 -2 2 h 2 c 1.109375 0 2 -0.890625 2 -2 v -4 c 0 -1.109375 -0.890625 -2 -2 -2 z m 0 20 c 1.109375 0 2 0.890625 2 2 v 4 c 0 1.109375 -0.890625 2 -2 2 h 2 c 1.109375 0 2 -0.890625 2 -2 v -4 c 0 -1.109375 -0.890625 -2 -2 -2 z m 0 20 c 1.109375 0 2 0.890625 2 2 v 4 c 0 1.109375 -0.890625 2 -2 2 h 2 c 1.109375 0 2 -0.890625 2 -2 v -4 c 0 -1.109375 -0.890625 -2 -2 -2 z m 0 20 c 1.109375 0 2 0.890625 2 2 v 4 c 0 1.109375 -0.890625 2 -2 2 h 2 c 1.109375 0 2 -0.890625 2 -2 v -4 c 0 -1.109375 -0.890625 -2 -2 -2 z m 0 20 c 1.109375 0 2 0.890625 2 2 v 4 c 0 1.109375 -0.890625 2 -2 2 h 2 c 1.109375 0 2 -0.890625 2 -2 v -4 c 0 -1.109375 -0.890625 -2 -2 -2 z m 0 0" fill-opacity="0.101961"/>
    <path d="m 110 24 h 2 v 96 h -2 z m 0 0" fill="#ffffff" fill-opacity="0.501961"/>
    <path d="m 6 108 h 4 c 1.109375 0 2 0.890625 2 2 v 4 c 0 1.109375 -0.890625 2 -2 2 h -4 c -1.109375 0 -2 -0.890625 -2 -2 v -4 c 0 -1.109375 0.890625 -2 2 -2 z m 0 -20 h 4 c 1.109375 0 2 0.890625 2 2 v 4 c 0 1.109375 -0.890625 2 -2 2 h -4 c -1.109375 0 -2 -0.890625 -2 -2 v -4 c 0 -1.109375 0.890625 -2 2 -2 z m 0 -20 h 4 c 1.109375 0 2 0.890625 2 2 v 4 c 0 1.109375 -0.890625 2 -2 2 h -4 c -1.109375 0 -2 -0.890625 -2 -2 v -4 c 0 -1.109375 0.890625 -2 2 -2 z m 0 -20 h 4 c 1.109375 0 2 0.890625 2 2 v 4 c 0 1.109375 -0.890625 2 -2 2 h -4 c -1.109375 0 -2 -0.890625 -2 -2 v -4 c 0 -1.109375 0.890625 -2 2 -2 z m 0 -20 h 4 c 1.109375 0 2 0.890625 2 2 v 4 c 0 1.109375 -0.890625 2 -2 2 h -4 c -1.109375 0 -2 -0.890625 -2 -2 v -4 c 0 -1.109375 0.890625 -2 2 -2 z m 0 0" fill="#deddda"/>
    <path d="m 8 20 h 6 v 104 h -6 z m 0 0" fill="url(#f)"/>
    <path d="m 14 24 h 4 v 96 h -4 z m 0 0" fill="url(#g)"/>
    <path d="m 14 24 h 4 v 96 h -4 z m 0 0" fill="#77767b" fill-opacity="0.501961"/>
    <path d="m 6 28 c -1.109375 0 -2 0.890625 -2 2 v 4 c 0 1.109375 0.890625 2 2 2 h 2 c -1.109375 0 -2 -0.890625 -2 -2 v -4 c 0 -1.109375 0.890625 -2 2 -2 z m 0 20 c -1.109375 0 -2 0.890625 -2 2 v 4 c 0 1.109375 0.890625 2 2 2 h 2 c -1.109375 0 -2 -0.890625 -2 -2 v -4 c 0 -1.109375 0.890625 -2 2 -2 z m 0 20 c -1.109375 0 -2 0.890625 -2 2 v 4 c 0 1.109375 0.890625 2 2 2 h 2 c -1.109375 0 -2 -0.890625 -2 -2 v -4 c 0 -1.109375 0.890625 -2 2 -2 z m 0 20 c -1.109375 0 -2 0.890625 -2 2 v 4 c 0 1.109375 0.890625 2 2 2 h 2 c -1.109375 0 -2 -0.890625 -2 -2 v -4 c 0 -1.109375 0.890625 -2 2 -2 z m 0 20 c -1.109375 0 -2 0.890625 -2 2 v 4 c 0 1.109375 0.890625 2 2 2 h 2 c -1.109375 0 -2 -0.890625 -2 -2 v -4 c 0 -1.109375 0.890625 -2 2 -2 z m 0 0" fill-opacity="0.101961"/>
    <path d="m 16 24 h 2 v 96 h -2 z m 0 0" fill="#ffffff" fill-opacity="0.501961"/>
    <path d="m 52 62 v 24 c 0 0.828125 0.441406 1.59375 1.15625 2.007812 c 0.714844 0.414063 1.597656 0.417969 2.316406 0.007813 l 21.054688 -12.03125 c 0.710937 -0.40625 1.152344 -1.164063 1.152344 -1.984375 s -0.441407 -1.578125 -1.152344 -1.984375 l -21.054688 -12.03125 c -0.71875 -0.410156 -1.601562 -0.40625 -2.316406 0.007813 c -0.714844 0.414062 -1.15625 1.179687 -1.15625 2.007812 z m 0 0" fill="#c0bfbc"/>
    <path d="m 52 60 v 24 c 0 0.828125 0.441406 1.59375 1.15625 2.007812 c 0.714844 0.414063 1.597656 0.417969 2.316406 0.007813 l 21.054688 -12.03125 c 0.710937 -0.40625 1.152344 -1.164063 1.152344 -1.984375 s -0.441407 -1.578125 -1.152344 -1.984375 l -21.054688 -12.03125 c -0.71875 -0.410156 -1.601562 -0.40625 -2.316406 0.007813 c -0.714844 0.414062 -1.15625 1.179687 -1.15625 2.007812 z m 0 0" fill="#f6f5f4"/>
    <path d="m 54.71875 57.710938 c -0.675781 -0.113282 -1.367188 0.074218 -1.890625 0.511718 c -0.527344 0.441406 -0.828125 1.09375 -0.828125 1.777344 v 2 c 0 -0.828125 0.441406 -1.59375 1.15625 -2.007812 c 0.714844 -0.414063 1.597656 -0.417969 2.316406 -0.007813 l 21.054688 12.03125 c 0.394531 0.230469 0.710937 0.574219 0.910156 0.984375 c 0.527344 -1.078125 0.128906 -2.382812 -0.910156 -2.984375 l -21.054688 -12.03125 c -0.234375 -0.132813 -0.488281 -0.226563 -0.753906 -0.273437 z m 0 0" fill-opacity="0.101961"/>
    <g clip-path="url(#o)" mask="url(#k)">
        <g clip-path="url(#n)" mask="url(#l)">
            <path d="m 128 80.640625 v 47.359375 h -128 v -47.359375 z m 0 0" fill="url(#m)"/>
            <path d="m 13.308594 80.640625 l 47.355468 47.359375 h 21.214844 l -47.359375 -47.359375 z m 42.421875 0 l 47.363281 47.359375 h 21.214844 l -47.363282 -47.359375 z m 42.429687 0 l 29.839844 29.839844 v -21.210938 l -8.628906 -8.628906 z m -98.160156 7.90625 v 21.214844 l 18.238281 18.238281 h 21.214844 z m 0 0"/>
        </g>
    </g>
</svg>
